<svg version="1.1" id="logoRedlab" xmlns="http://www.w3.org/2000/svg" xmlns:xlink="http://www.w3.org/1999/xlink" viewBox="100 50 2320 470" xml:space="preserve">
	<style type="text/css">
	.red{fill: #e12c2c;}
	.lab{fill: #fff;}
	</style>
	<path class="red" d="M98.9,77.1c4.1-4.9,10.1-7.7,17.1-7.7c57.3,0.1,114.7-1,172,0.6c47.4,1.3,89.5,17.6,123,52.6
        c48.3,50.4,50.4,129.3,5.5,183.4c-29.6,35.7-67.8,55.6-113.6,61.1c-8.2,1-16.6,1.1-24.9,1.1c-23.5,0.1-47,0-70.5,0
        c-1.6,0-3.2,0-6.4,0c2.4,1.7,3.5,2.6,4.6,3.3c54.6,33.2,109.2,66.4,163.9,99.5c2.1,1.3,4.4,2.4,6.7,3.4c13.6,6.1,16.9,22.2,11,32.9
        c-6.7,12.1-21.4,16.2-33.6,8.8c-52.2-32-104.3-64.2-156.6-96.2c-18.9-11.6-37.8-23.1-57-34.1c-11.4-6.5-17.8-15.2-16.7-28.7
        c0.2-3,0-6,0-9c0.1-14.8,10.6-24.9,25.4-24.9c49,0.2,98,0.8,147,0.2c44.4-0.6,77.2-22.2,96.8-61.3c19.3-38.6,13.2-76.1-13.9-109.2
        c-21.5-26.4-49.8-40.1-84.5-40c-57.2,0.2-114.3-0.2-171.5,0.2c-9.5,0.1-17.4-1.7-23-7.1c-2.8-2.7-6.6-8.1-6.6-15.2
        S97.2,79.1,98.9,77.1z"></path><path class="red" d="M1037.9,519.6c-10.2-3.8-16.7-14.3-15-24.4c1.8-11.3,10.5-19.2,21.8-19.8c81.7-4.6,150.6-62.5,167.2-142.4
        c12.4-60-2-114.1-42.1-160.5c-27.1-31.4-61.7-50.8-102.6-58.1c-8.6-1.6-17.5-2.3-26.3-2.4c-29.5-0.3-59-0.1-88.5,0
        c-13.3,0-22.7-7.3-24.4-19.5c-1.6-10.7,5.9-22.3,17.3-24.5c0.4-0.1,0.8-0.5,1.2-0.8c35.7,0,71.3,0,107,0
        c12.6,2.2,25.4,3.4,37.7,6.9c63.4,17.8,110.3,56.7,141.9,114.1c45.8,83.1,33.8,197.5-45.1,272.7c-29.8,28.4-64.5,47.9-105,56.6
        c-7.1,1.5-18.4,3-21.8,3.3S1042.2,521.1,1037.9,519.6z"></path><path class="red" d="M845.4,67.1c1.2,0.5,2.3,1.1,3.6,1.6c10.2,3.8,16.7,14.3,15,24.4c-1.8,11.3-10.5,19.3-21.8,19.8
        c-3.8,0.2-7.7-0.1-11.5-0.1c-98.9,0-197.8,0-296.7,0c-5,0-10.1,0.3-14.9-0.5c-10.6-1.9-17.7-10.2-18.5-20.7
        c-0.8-9.8,5.5-19.2,15.2-22.9c1.2-0.5,2.4-1,3.6-1.6C628.1,67.1,736.7,67.1,845.4,67.1z"></path><path class="red" d="M545.4,308.8c0,55.8,0,110.9,0,166.5c2,0.1,3.7,0.2,5.5,0.2c93.5,0,187,0,280.5,0c5,0,10.1-0.3,14.9,0.7
        c10,2,17,11.2,17,21.3c0,10.1-6.9,19.1-16.9,21.5c-3,0.7-6.3,1-9.4,1.1c-102.7,0.1-205.3,0.1-308,0c-17.3,0-28.3-11.2-28.3-28.5
        c0-66.3,0-132.7,0-199c0-17.5,10.7-28.4,28.3-28.4c103,0,206,0,309,0c13,0,21.8,6.2,24.5,17c3.4,14-6.5,27.1-21.1,27.6
        c-3.5,0.1-7-0.1-10.5-0.1c-93.2,0-186.3,0-279.5,0C549.5,308.8,547.7,308.8,545.4,308.8z"></path><path class="lab" d="M2406.4,377.1c-1,6.9-1.7,13.8-3,20.6c-10.5,51.4-39.4,88.7-87.3,109.8c-60.8,26.9-128.6,11.7-173.1-37.9
        c-20.8-23.1-33.2-50.4-36.5-81.5c-0.7-6.1-0.9-12.3-0.9-18.4c-0.1-92.3,0-184.6,0-276.9c0-12,6-20.7,16.2-23.6
        c13.7-4,27.6,5.6,28.6,19.9c0.2,2,0.1,4,0.1,6c0,90.3-0.1,180.6,0,270.9c0.1,41.1,16.5,73.9,52.4,94.8
        c60.1,34.9,140.7,4.6,155.7-70.2c11.4-56.8-22.3-109.1-78.6-122.7c-8-1.9-16.4-2.4-24.7-2.6c-14.4-0.4-24.9-9.7-24.8-23.1
        c0-13.3,10.6-23.1,25-22.9c75.2,1.2,130.8,51.6,146.2,114.5c1.9,7.9,2.5,16,3.7,24.1c0.3,1.8,0.7,3.5,1,5.3
        C2406.4,367.8,2406.4,372.5,2406.4,377.1z"></path><path class="lab" d="M1436.2,521.1c-8.1,0-14.6-3.9-18.3-6.8c-6.6-5.3-9.4-12.6-9.4-21.1c0.2-111,0.3-221.9,0.4-332.9
        c0-21.8-0.2-43.6-0.4-65.5c-0.2-13.9,9.5-24.5,22.7-24.7c13.2-0.1,23.2,10.3,23.2,24.1c0,124.6-0.1,249.3-0.1,373.9
        c0,2.1,0,4.3,0,6.9c2.2,0.1,3.9,0.3,5.7,0.3c82,0,164,0,245.9,0c4.2,0,8.4-0.5,12.5,0c10.5,1.3,18.6,9.7,19.9,20.1
        c1.2,10.1-4.6,19.8-14.4,23.9c-1.2,0.5-3.4,1.7-5.8,1.7C1621.4,521.1,1532.8,521.1,1436.2,521.1z"></path><path class="lab" d="M2006.6,428.4c0-22,0.7-44-0.1-66c-1.7-46-36.9-86.4-81.9-95.3c-56.5-11.2-109.4,22.2-123.6,77.9
        c-14.6,57.4,26.5,118.9,85,127.4c2.5,0.4,4.9,0.7,7.4,0.8c14.4,0.3,24.8,10.8,24,24.4c-0.8,13.2-12.3,22.8-26.2,21.5
        c-30.2-2.9-57.7-13.1-81.4-32.3c-33-26.7-52-61.2-56.3-103.6c-7.5-73.3,42.4-143.1,116.8-159.5c84.6-18.6,166.3,36.8,179.7,122.5
        c1.1,7.2,1.5,14.6,1.5,21.9c0.1,37.2,0,74.3,0.1,111.5c0,4.5,0.3,9,0.7,13.4c1.2,13.8-8.4,25.4-21.7,26
        c-13.6,0.7-24.2-10.1-24.1-24.2c0.1-22.2,0-44.3,0-66.5C2006.5,428.4,2006.5,428.4,2006.6,428.4z">
	</path>
</svg>